<svg xmlns="http://www.w3.org/2000/svg" viewBox="0 0 80 80"><defs><style>.cls-1{fill:#1aa5df;}.cls-2{fill:#fff;stroke-linecap:round;stroke-linejoin:round;}.cls-2,.cls-6{stroke:#000;stroke-width:1.35px;}.cls-3{fill:#f1da98;}.cls-4{fill:#c0b3e6;}.cls-5{fill:#0d0d0d;}.cls-6,.cls-7{fill:none;}.cls-6{stroke-miterlimit:10;}</style></defs><g id="Capa_2" data-name="Capa 2"><g id="Capa_1-2" data-name="Capa 1"><path class="cls-1" d="M19.46,63.5a11.22,11.22,0,0,1,1.37-4.33,9.09,9.09,0,0,1,8-4.85c5-.08,9.14,4.17,9.4,9.5.12,2.44,0,4.88,0,7.32a3.21,3.21,0,0,1-.07.53.91.91,0,0,1-.79.32H20.31c-.67,0-.86-.2-.86-.91C19.45,68.55,19.46,66,19.46,63.5Z"/><path class="cls-1" d="M58.24,46.87h0c0-.07-.06-.15-.16-.11h0c0-.09,0-.14-.08-.2a6.59,6.59,0,0,0-6-2.35,7.3,7.3,0,0,0-6.24,7.54c0,1.27,0,2.54,0,3.81,0,.42-.19,1,.08,1.24s.83.08,1.26.06l.17,0H59.53c.31,0,.34-.14.34-.4,0-1.72,0-3.43,0-5.15A7.16,7.16,0,0,0,58.31,47Z"/><path class="cls-1" d="M21.9,45a9,9,0,0,1,13.77-8,9,9,0,1,0-12,13A9,9,0,0,1,21.9,45Z"/><path class="cls-2" d="M35.3,8H10.85A2.85,2.85,0,0,0,8,10.86V27.13A2.85,2.85,0,0,0,10.85,30H13L15.92,35,18.84,30H35.3a2.84,2.84,0,0,0,2.85-2.85V10.86A2.84,2.84,0,0,0,35.3,8Z"/><path class="cls-2" d="M49.19,9.14H69.62a2.23,2.23,0,0,1,2.38,2V22.83a2.24,2.24,0,0,1-2.38,2.05h-1.8l-2.44,3.61L63,24.88H49.19a2.24,2.24,0,0,1-2.38-2.05V11.18A2.23,2.23,0,0,1,49.19,9.14Z"/><path d="M18.36,62.82a10.88,10.88,0,0,1,1.47-4.32,9.91,9.91,0,0,1,8.62-4.86,10.06,10.06,0,0,1,10.11,9.51c.13,2.44,0,4.88,0,7.32a4.63,4.63,0,0,1-.07.52,1,1,0,0,1-.85.33H19.27c-.71,0-.92-.2-.92-.9C18.35,67.88,18.36,65.35,18.36,62.82Zm16.89-4.67h0c0-.08-.08-.18-.2-.13h0a.24.24,0,0,0-.1-.23A8.53,8.53,0,0,0,27.46,55,8.79,8.79,0,0,0,19.64,64c0,1.5,0,3,0,4.5,0,.51-.23,1.2.1,1.48s1,.09,1.59.07l.21,0H36.87c.39,0,.42-.16.42-.47,0-2,0-4.07,0-6.1a8.22,8.22,0,0,0-1.94-5.2Z"/><path d="M52.8,56.62H46.27c-.81,0-1-.18-1-1,0-1.84-.1-3.68.06-5.52a7.51,7.51,0,0,1,15,1v4.51c0,.84-.18,1-1,1ZM57.45,47h0c0-.18-.11-.25-.2-.35a6.19,6.19,0,0,0-10.65,4.11c0,1.08,0,2.16,0,3.24,0,1.37,0,1.37,1.38,1.27l10.67,0c.37,0,.38-.19.38-.47,0-1.24,0-2.47,0-3.71a6.18,6.18,0,0,0-1.41-4C57.58,47,57.54,47,57.45,47Z"/><path class="cls-1" d="M35.07,58l-1.23-.59a8.82,8.82,0,0,0-12.5,8.27c0,1.43,0,2.86,0,4.29-.55,0-1.23.23-1.59-.07s-.1-1-.1-1.48c0-1.5,0-3,0-4.5A8.79,8.79,0,0,1,27.46,55,8.53,8.53,0,0,1,35,57.8.24.24,0,0,1,35.07,58Z"/><path class="cls-3" d="M35.25,58.16c-.09,0-.17,0-.2-.13C35.17,58,35.21,58.08,35.25,58.16Z"/><path class="cls-3" d="M35.34,58.26l-.09-.11Z"/><path class="cls-3" d="M23,47.64l.14.12C23.11,47.75,23.05,47.72,23,47.64Z"/><path class="cls-1" d="M57.46,47a16,16,0,0,0-2.17-.78A6.16,6.16,0,0,0,48,52.1c0,1.06,0,2.11,0,3.17-1.38.1-1.38.1-1.38-1.27,0-1.08,0-2.16,0-3.24a6.19,6.19,0,0,1,10.65-4.11C57.35,46.75,57.49,46.82,57.46,47Z"/><path class="cls-4" d="M57.62,47.11,57.45,47C57.54,47,57.58,47,57.62,47.11Z"/><path class="cls-1" d="M15.57,19.56a1.84,1.84,0,1,1,3.67,0,1.89,1.89,0,0,1-1.85,1.82A1.86,1.86,0,0,1,15.57,19.56Z"/><path class="cls-1" d="M31.48,19.52a1.86,1.86,0,0,1-1.84,1.87,1.92,1.92,0,0,1-1.84-1.84,1.89,1.89,0,0,1,1.83-1.84A1.85,1.85,0,0,1,31.48,19.52Z"/><path class="cls-1" d="M25.34,19.56a1.82,1.82,0,1,1-1.79-1.84A1.82,1.82,0,0,1,25.34,19.56Z"/><path class="cls-5" d="M56.43,17.18A1.46,1.46,0,0,1,55,18.67a1.49,1.49,0,0,1-1.49-1.45A1.47,1.47,0,0,1,55,15.74,1.43,1.43,0,0,1,56.43,17.18Z"/><path class="cls-5" d="M66.21,17.25a1.44,1.44,0,0,1-1.45,1.42,1.5,1.5,0,0,1-1.47-1.48,1.47,1.47,0,0,1,1.53-1.45A1.41,1.41,0,0,1,66.21,17.25Z"/><path class="cls-5" d="M58.41,17.13a1.46,1.46,0,0,1,1.53-1.39,1.47,1.47,0,1,1-1.53,1.39Z"/><circle class="cls-6" cx="28.55" cy="42.46" r="8.76"/><path class="cls-1" d="M49.13,37.78a4.87,4.87,0,0,1,7.32-4.52,4.87,4.87,0,1,0-6.31,7.19A4.93,4.93,0,0,1,49.13,37.78Z"/><circle class="cls-6" cx="52.63" cy="36.23" r="5.22"/><rect class="cls-7" width="80" height="80"/></g></g></svg>